PathFileType	4	(X/Y/Z)	c:/Users/goper/Files/vsCode/490R/osim_files/C12/C12_Static.trc
DataRate	CameraRate	NumFrames	NumMarkers	Units                	OrigDataRate	OrigDataStartFrame	OrigNumFrames
120.00	120.00	4	36	mm	120.0	508	812
                Frame#	Time	LPSIS			LASIS			LTH1			LTH2			LTH3			LTH4			LLFE			LMFE			LSH1			LSH2			LSH3			LSH4			LLMAL			LMMAL			LCAL			LMTP5			LTOE			LMTP1			RPSIS			RASIS			RTH1			RTH2			RTH3			RTH4			RLFE			RMFE			RSH1			RSH2			RSH3			RSH4			RLMAL			RMMAL			RCAL			RMTP1			RTOE			RMTP5		
		X1	Y1	Z1	X2	Y2	Z2	X3	Y3	Z3	X4	Y4	Z4	X5	Y5	Z5	X6	Y6	Z6	X7	Y7	Z7	X8	Y8	Z8	X9	Y9	Z9	X10	Y10	Z10	X11	Y11	Z11	X12	Y12	Z12	X13	Y13	Z13	X14	Y14	Z14	X15	Y15	Z15	X16	Y16	Z16	X17	Y17	Z17	X18	Y18	Z18	X19	Y19	Z19	X20	Y20	Z20	X21	Y21	Z21	X22	Y22	Z22	X23	Y23	Z23	X24	Y24	Z24	X25	Y25	Z25	X26	Y26	Z26	X27	Y27	Z27	X28	Y28	Z28	X29	Y29	Z29	X30	Y30	Z30	X31	Y31	Z31	X32	Y32	Z32	X33	Y33	Z33	X34	Y34	Z34	X35	Y35	Z35	X36	Y36	Z36

508	4.22500	-343.72525	1064.07312	433.62512	-165.55267	1030.77844	369.47141	-295.43881	762.81879	304.16422	-294.61444	718.25623	302.23218	-234.14130	760.72449	293.65723	-241.45393	716.02936	293.20691	-283.11627	535.05280	320.89328	-270.58746	513.35126	444.41025	-349.87997	446.80054	296.96246	-346.86505	400.68829	283.13931	-289.31287	445.72644	295.58420	-295.19064	399.48373	285.57776	-311.74612	103.11274	285.25156	-290.08994	103.23983	360.85687	-366.79861	72.70979	326.37912	-180.86800	40.01282	239.27167	-122.00330	70.08194	301.05646	-146.94923	41.61176	346.20306	-352.69644	1062.17493	543.73749	-169.06554	1024.63013	630.49695	-286.55707	763.25244	700.25476	-284.85037	717.52820	695.83710	-223.39053	758.23242	699.20111	-232.46677	711.08405	696.26422	-300.06619	536.56073	673.23804	-288.32114	520.59814	540.51434	-369.75629	442.53070	697.80499	-366.62833	400.44574	709.26355	-307.12085	438.95084	698.64453	-314.94632	398.29279	711.41980	-331.13199	102.52070	701.52893	-307.04788	113.00810	621.88422	-395.56311	63.78852	658.15601	-178.15446	47.21043	632.55701	-140.25893	67.05565	668.55902	-178.28906	40.98164	739.58917
509	4.23333	-343.72961	1064.04797	433.60687	-165.53679	1030.80737	369.46469	-295.43176	762.84082	304.15454	-294.59268	718.26031	302.22061	-234.11847	760.71820	293.65948	-241.44048	716.03430	293.18597	-283.11404	535.05939	320.90338	-270.57748	513.34515	444.39761	-349.87045	446.81512	296.95758	-346.85934	400.69894	283.13293	-289.30728	445.73160	295.58530	-295.17224	399.47925	285.57816	-311.74512	103.12578	285.23792	-290.14444	103.24173	360.83957	-366.91577	72.87940	326.37515	-180.87387	40.03839	239.24249	-122.01379	70.11245	301.03262	-147.02565	41.62085	346.19455	-352.68735	1062.13928	543.72382	-169.06242	1024.65552	630.48975	-286.60452	763.24463	700.21722	-284.89807	717.54828	695.80908	-223.71275	758.08386	699.14221	-232.43477	711.12732	696.23840	-300.09332	536.58331	673.19958	-288.35587	520.59167	540.50549	-369.81259	442.53937	697.77838	-366.65445	400.47327	709.24323	-307.14566	438.97443	698.61542	-314.97632	398.32486	711.38873	-331.20761	102.52841	701.50726	-307.04965	113.00272	621.90228	-395.58456	63.81518	658.16125	-178.15936	47.25125	632.53986	-140.28206	67.06586	668.55658	-178.30009	40.99589	739.58533
510	4.24167	-343.73883	1064.06665	433.59473	-165.50847	1030.81250	369.46933	-295.45959	762.83807	304.17773	-294.60770	718.29095	302.23700	-234.08688	760.75061	293.67874	-241.43863	716.04480	293.19879	-283.10867	535.08026	320.89600	-270.56665	513.35681	444.39169	-349.84976	446.83875	296.95947	-346.87296	400.71561	283.14127	-289.27042	445.74207	295.58868	-295.16333	399.50296	285.59512	-311.76630	103.14680	285.24460	-290.08194	103.23280	360.81537	-366.77759	72.81927	326.32730	-180.81183	40.06659	239.24365	-121.96744	70.14231	301.04221	-146.91284	41.67257	346.19318	-352.71326	1062.16199	543.71643	-168.94519	1024.68286	630.46667	-286.49384	763.22351	700.20697	-284.76758	717.52209	695.79541	-223.56522	758.11475	699.12549	-232.37718	711.13470	696.22095	-300.04022	536.58453	673.17877	-288.32095	520.61383	540.51190	-369.76306	442.55411	697.77472	-366.59521	400.45834	709.23425	-307.09238	438.99045	698.60876	-314.92212	398.33215	711.38287	-331.13269	102.53997	701.50140	-307.04849	113.02323	621.90308	-395.66605	63.87986	658.17224	-178.11345	47.28045	632.55524	-140.23770	67.09779	668.55511	-178.28012	41.00577	739.58582
511	4.25000	-343.72073	1064.08984	433.61380	-165.49461	1030.81738	369.47647	-295.45740	762.85321	304.18344	-294.62173	718.30322	302.23090	-234.06529	760.79388	293.65128	-241.42690	716.07806	293.19257	-283.09747	535.11853	320.89948	-270.57190	513.37469	444.40018	-349.85162	446.84677	296.96909	-346.86612	400.74539	283.14236	-289.26157	445.76752	295.59329	-295.15298	399.54358	285.59137	-311.76218	103.15651	285.24548	-290.13382	103.20306	360.85358	-366.84219	72.71568	326.43921	-180.86095	40.04167	239.28867	-121.98987	70.13097	301.08112	-146.95888	41.62599	346.20764	-352.66489	1062.16528	543.73016	-168.96454	1024.66211	630.48138	-286.46213	763.22430	700.24341	-284.78073	717.45520	695.81769	-223.58617	758.07336	699.18597	-232.39725	711.08136	696.23932	-300.08704	536.52502	673.21039	-288.31522	520.64032	540.53351	-369.74484	442.56607	697.80017	-366.58435	400.44977	709.26300	-307.12784	438.97440	698.63416	-314.96118	398.30539	711.41760	-331.13068	102.52846	701.53510	-307.01755	113.04191	621.91132	-395.58435	63.86227	658.16168	-178.10733	47.28056	632.58130	-140.24530	67.11814	668.56555	-178.30138	40.98523	739.60858
